<svg width="512" height="512" viewBox="0 0 512 512" fill="none" xmlns="http://www.w3.org/2000/svg">
<path d="M484.895 397.712C484.895 417.638 473.514 435.859 455.524 444.428C421.56 460.607 356.843 482.41 254.714 482.41C152.585 482.41 87.868 460.607 53.904 444.428C35.914 435.859 24.533 417.638 24.533 397.712C24.533 369.086 47.739 345.88 76.365 345.88H433.063C461.689 345.88 484.895 369.086 484.895 397.712Z" fill="#E59328"/>
<path d="M482.894 318.752C482.894 298.826 471.513 280.605 453.523 272.036C419.559 255.857 354.842 234.054 252.713 234.054C150.584 234.054 85.867 255.857 51.903 272.036C33.913 280.605 22.532 298.826 22.532 318.752C22.532 319.04 22.549 319.324 22.554 319.61C22.549 319.897 22.532 320.181 22.532 320.468C22.532 340.394 33.913 358.615 51.903 367.184C85.867 383.363 150.584 405.166 252.713 405.166C354.842 405.166 419.559 383.363 453.523 367.184C471.513 358.615 482.894 340.394 482.894 320.468C482.894 320.18 482.877 319.896 482.872 319.61C482.877 319.323 482.894 319.039 482.894 318.752Z" fill="#7A2F18"/>
<path d="M257.839 369.691C374.601 369.691 469.255 337.449 469.255 297.676C469.255 257.903 374.601 225.661 257.839 225.661C141.077 225.661 46.423 257.903 46.423 297.676C46.423 337.449 141.077 369.691 257.839 369.691Z" fill="#DB1D1D"/>
<path d="M257.839 342.276C374.601 342.276 469.255 310.034 469.255 270.261C469.255 230.488 374.601 198.246 257.839 198.246C141.077 198.246 46.423 230.488 46.423 270.261C46.423 310.034 141.077 342.276 257.839 342.276Z" fill="#FF473E"/>
<path d="M487 224.896C462.835 211.482 427.517 206.204 396.469 206.218C379.533 206.226 362.291 207.993 346.127 211.298C333.536 213.872 321.23 217.129 308.281 218.805C306.111 218.895 303.938 218.915 301.766 218.866C300.277 218.635 298.795 218.362 297.321 218.047C291.953 216.244 286.855 214.133 281.652 212.116C273.314 208.885 264.583 206.359 255.602 203.976C239.803 199.785 223.163 197.787 206.229 196.788C174.251 194.901 141.284 199.721 112.852 209.405C108.299 209.781 103.808 210.7 99.473 212.142C70.45 221.821 45.87 237.27 28.607 255.313C24.941 259.145 21.695 263.152 18.909 267.291C12.836 276.314 7.388 285.595 12.775 295.573C22.861 314.256 53.004 321.072 80.733 316.688C99.859 313.664 114.773 305.379 129.772 297.541C133.532 295.759 137.424 294.133 141.529 292.739C141.985 292.642 142.44 309.555 142.899 309.467C146.745 311.775 150.367 314.241 154.298 316.493C160.994 320.33 168.158 324.027 175.776 327.057C191.377 333.264 210.036 337.239 228.393 337.127C247.148 337.013 265.06 333.081 279.859 325.576C287.743 321.577 294.21 316.86 299.207 311.116C301.036 309.014 302.616 306.837 304.346 304.716C305.761 304.96 316.467 291.494 320.201 293.269C329.548 298.188 338.674 303.358 348.804 307.553C362.812 313.354 379.297 316.837 395.923 316.866C427.936 316.924 458.137 304.795 480.363 290.503C491.832 283.128 502.558 273.339 505.712 262.801C509.89 248.84 503.933 234.296 487 224.896ZM159.185 246.755C165.872 245.32 172.625 244.217 179.421 243.451C188.796 242.863 198.199 242.863 207.574 243.451C216.376 244.446 224.98 245.963 233.344 248.019C239.978 250.115 246.211 269.643 252.56 272.058C246.128 277.04 242.503 282.984 237.206 288.478C236.937 288.66 236.659 288.837 236.382 289.014C235.694 289.288 235.002 289.551 234.305 289.8C233.003 290.064 231.694 290.296 230.38 290.496C228.697 290.542 227.012 290.539 225.329 290.49C222.818 290.117 220.322 289.651 217.846 289.091C213.867 287.777 209.964 286.242 206.156 284.494C199.175 280.581 192.86 276.205 185.571 272.508C177.699 268.517 168.762 248.359 159.185 246.755ZM421.817 262.449C416.727 264.847 411.423 267.005 405.811 268.825C403.32 269.391 400.807 269.861 398.28 270.235C396.977 270.267 395.674 270.269 394.371 270.242C393.078 270.038 391.79 269.802 390.509 269.534C386.049 268.014 381.854 266.209 377.788 264.258C372.991 261.717 368.25 259.091 363.388 256.583C370.032 255.227 376.728 254.037 383.607 253.218C392.36 252.682 401.138 252.687 409.89 253.234C417.061 254.057 424.181 255.27 431.22 256.866C428.251 258.839 425.09 260.684 421.817 262.449Z" fill="#00B89C"/>
<path d="M115.046 332.032C101.625 310.322 75.826 270.303 43.593 228.642C-2.721 236.502 366.391 174.286 366.391 174.286C469.467 185.143 483.082 236.139 483.134 262.139C483.151 270.461 476.013 277.008 467.712 276.421C246.892 260.786 164.214 310.078 136.982 335.123C130.347 341.223 119.786 339.699 115.046 332.032Z" fill="#FECB21"/>
<path d="M252.713 25.587C129.518 25.587 22.532 103.395 22.532 197.117C22.532 247.088 125.587 287.597 252.713 287.597C379.839 287.597 482.894 247.088 482.894 197.117C482.894 106.046 375.908 25.587 252.713 25.587Z" fill="#E59328"/>
<path d="M108.361 133.308L118.022 154.241C118.57 155.427 118.623 156.783 118.172 158.009C117.72 159.235 116.799 160.231 115.613 160.779C114.923 161.094 114.17 161.247 113.412 161.226C112.654 161.205 111.91 161.011 111.239 160.658L90.873 149.855C84.675 146.567 82.315 138.877 85.603 132.679C88.891 126.481 96.581 124.121 102.779 127.409C105.237 128.709 107.199 130.782 108.361 133.308ZM312.012 59.23C305.814 55.942 298.124 58.302 294.836 64.5C291.548 70.698 293.908 78.388 300.106 81.676L320.472 92.479C321.143 92.8316 321.887 93.0259 322.645 93.0469C323.403 93.0678 324.156 92.915 324.846 92.6C326.032 92.0524 326.953 91.056 327.405 89.8299C327.856 88.6038 327.803 87.2484 327.255 86.062L317.594 65.129C316.431 62.6034 314.47 60.5306 312.012 59.23ZM197.412 84.973C193.388 79.225 185.466 77.828 179.718 81.853C173.97 85.877 172.573 93.799 176.598 99.547L189.821 118.432C190.258 119.052 190.832 119.563 191.498 119.926C192.163 120.29 192.903 120.496 193.661 120.529C194.967 120.581 196.24 120.112 197.2 119.226C198.16 118.339 198.729 117.108 198.781 115.802L199.7 92.766C199.813 89.9877 199.009 87.2493 197.412 84.973ZM430.924 141.136C433.964 134.503 431.051 126.662 424.419 123.623C417.786 120.583 409.945 123.496 406.906 130.128L399.452 146.392C399.042 147.288 398.899 148.283 399.039 149.258C399.18 150.234 399.6 151.147 400.247 151.891C400.894 152.634 401.742 153.174 402.688 153.448C403.635 153.721 404.64 153.716 405.584 153.433L422.718 148.283C426.203 147.218 429.286 144.709 430.924 141.136ZM242.467 194.789C235.57 193.502 228.935 198.049 227.647 204.946C226.36 211.843 230.907 218.478 237.804 219.766L260.467 223.996C261.213 224.132 261.98 224.095 262.71 223.889C263.44 223.683 264.113 223.312 264.677 222.806C265.157 222.372 265.546 221.848 265.824 221.263C266.101 220.678 266.26 220.045 266.292 219.398C266.324 218.752 266.229 218.106 266.011 217.497C265.794 216.887 265.458 216.327 265.024 215.847L249.555 198.753C247.692 196.689 245.201 195.296 242.467 194.789ZM364.617 214.043C367.426 220.473 374.915 223.408 381.345 220.599C387.775 217.79 390.71 210.301 387.901 203.871L378.671 182.745C378.365 182.051 377.903 181.437 377.323 180.949C376.742 180.461 376.057 180.112 375.321 179.93C374.692 179.777 374.04 179.749 373.4 179.848C372.761 179.947 372.147 180.172 371.594 180.508C371.042 180.844 370.56 181.286 370.178 181.809C369.796 182.331 369.521 182.923 369.368 183.552L363.914 205.952C363.255 208.653 363.502 211.496 364.617 214.043ZM173.788 207.73C174.594 200.68 169.532 194.312 162.482 193.506C155.432 192.7 149.064 197.762 148.258 204.812L145.611 227.976C145.545 228.567 145.606 229.166 145.791 229.732C145.975 230.298 146.278 230.818 146.679 231.257C147.424 232.068 148.461 232.55 149.561 232.596C150.661 232.643 151.735 232.251 152.546 231.506L169.715 215.733C171.991 213.642 173.437 210.801 173.788 207.73ZM290.226 165.874C296.812 168.293 304.112 164.915 306.531 158.329C308.95 151.743 305.572 144.443 298.986 142.024L277.345 134.076C276.632 133.818 275.869 133.726 275.115 133.808C274.361 133.89 273.636 134.143 272.995 134.548C271.894 135.251 271.117 136.363 270.835 137.639C270.553 138.915 270.79 140.251 271.493 141.352L283.897 160.785C285.391 163.13 287.615 164.919 290.226 165.874Z" fill="#FFCD7D"/>
</svg>
