<svg width="89" height="178" viewBox="0 0 89 178" fill="none" xmlns="http://www.w3.org/2000/svg">
    <path
        d="M0.541672 118.5H18.125C18.125 129.12 30.1696 138.167 44.5 138.167C58.8304 138.167 70.875 129.12 70.875 118.5C70.875 107.683 61.7317 103.75 42.39 98.5383C23.7517 93.3267 0.541672 86.8367 0.541672 59.5C0.541672 41.8983 13.4654 26.9517 31.3125 21.9367V0.5H57.6875V21.9367C75.5346 26.9517 88.4583 41.8983 88.4583 59.5H70.875C70.875 48.88 58.8304 39.8333 44.5 39.8333C30.1696 39.8333 18.125 48.88 18.125 59.5C18.125 70.3167 27.2683 74.25 46.61 79.4617C65.2483 84.6733 88.4583 91.1633 88.4583 118.5C88.4583 136.102 75.5346 151.048 57.6875 156.063V177.5H31.3125V156.063C13.4654 151.048 0.541672 136.102 0.541672 118.5Z" />
</svg>