<svg width="170" height="154" viewBox="0 0 170 154" fill="none" xmlns="http://www.w3.org/2000/svg">
    <path
        d="M119.719 0.5C133.747 0.5 145.496 5.74167 154.968 16.225C164.439 26.7083 169.172 39.175 169.167 53.625C169.167 56.175 169.026 58.691 168.746 61.173C168.465 63.655 167.974 66.0973 167.273 68.5H114.669L100.36 46.825C99.659 45.6917 98.6771 44.7708 97.4146 44.0625C96.1521 43.3542 94.8194 43 93.4167 43C91.5931 43 89.9434 43.5667 88.4677 44.7C86.9919 45.8333 85.9763 47.25 85.4208 48.95L74.0583 83.375L66.6937 72.325C65.9924 71.1917 65.0104 70.2708 63.7479 69.5625C62.4854 68.8542 61.1528 68.5 59.75 68.5H2.72708C2.0257 66.0917 1.53472 63.6465 1.25417 61.1645C0.973613 58.6825 0.833336 56.2402 0.833336 53.8375C0.833336 39.2458 5.53264 26.7083 14.9313 16.225C24.3299 5.74167 36.0431 0.5 50.0708 0.5C56.8042 0.5 63.1531 1.84583 69.1177 4.5375C75.0824 7.22917 80.3764 10.9833 85 15.8C89.4889 10.9833 94.7156 7.22917 100.68 4.5375C106.645 1.84583 112.991 0.5 119.719 0.5ZM85 153.5C82.475 153.5 80.0538 153.038 77.7364 152.114C75.419 151.191 73.3513 149.811 71.5333 147.975L15.1417 90.8125C14.3 89.9625 13.5285 89.1125 12.8271 88.2625C12.1257 87.4125 11.4243 86.4917 10.7229 85.5H55.1208L69.4292 107.175C70.1305 108.308 71.1125 109.229 72.375 109.938C73.6375 110.646 74.9701 111 76.3729 111C78.1965 111 79.8799 110.433 81.4229 109.3C82.966 108.167 84.0181 106.75 84.5792 105.05L95.9417 70.625L103.096 81.675C103.937 82.8083 104.99 83.7292 106.252 84.4375C107.515 85.1458 108.847 85.5 110.25 85.5H159.067L156.962 88.05L154.858 90.6L98.2562 147.975C96.4326 149.817 94.3986 151.199 92.1542 152.123C89.9097 153.047 87.525 153.506 85 153.5Z" />
</svg>